<svg id="Vector_Smart_Object" data-name="Vector Smart Object" xmlns="http://www.w3.org/2000/svg" xmlns:xlink="http://www.w3.org/1999/xlink" width="38" height="48" viewBox="0 0 38 48">
  <defs>
    <clipPath id="clip-path">
      <rect id="Rectangle_3" data-name="Rectangle 3" width="38" height="48" fill="none"/>
    </clipPath>
  </defs>
  <g id="Vector_Smart_Object-2" data-name="Vector Smart Object">
    <g id="Vector_Smart_Object-3" data-name="Vector Smart Object">
      <g id="Group_6" data-name="Group 6">
        <g id="Group_5" data-name="Group 5" clip-path="url(#clip-path)">
          <path id="Path_29" data-name="Path 29" d="M38,11.894c-5.552-10.7-18.243-6.7-18.243-6.7a13.913,13.913,0,0,1,8.869-3.5c-.433-.437-8.437-4.005-14.854.728a12.15,12.15,0,0,0-4.9,11.8A9.832,9.832,0,0,1,9.2,4.952c-6.874,5.461-2,13.214-2,13.214h0A17.791,17.791,0,0,0,0,27.6a9.721,9.721,0,0,1,6.409-2.426c3.136,0,5.272,2.073,5.272,3.732,0,1.794-2.01,2.769-2.864,1.874a4.241,4.241,0,0,0-2.8,4.053A5.1,5.1,0,0,0,11.1,39.672c2.414,0,6.249-1.493,6.249-6.974,0-4.713-5.044-7.431-5.673-7.431,0,0,7.8,1.082,7.8,10.108,0,10.78-11.106,11.736-11.106,11.736s8.177,2.907,13.283-1.79c5.31-4.883,3.82-13.742,2.667-16.073A14.486,14.486,0,0,1,25,43.713s7.49-3.131,6.624-13.009a9.876,9.876,0,0,1,.721,4.078c3.2-5.7.168-19.708-14.46-19.708-.631,0-1.234.062-1.823.12l.381-.127c18.05-2.108,20.262,14.3,20.262,14.3a16.684,16.684,0,0,0-.649-13.325,13.57,13.57,0,0,0-8.58-7.354c8,.218,10.527,3.2,10.527,3.2m-27.463,7.92a4.767,4.767,0,0,1,3-1.558,8.6,8.6,0,0,1,1.736-.058s.423,2.72-4.731,1.616" fill="#ec1c24"/>
        </g>
      </g>
    </g>
    <path id="Color_Overlay" data-name="Color Overlay" d="M13.888,48a18.592,18.592,0,0,1-5.523-.889s11.106-.956,11.106-11.736c0-8.308-6.608-9.885-7.658-10.083,1.022.277,5.532,2.949,5.532,7.407,0,5.48-3.834,6.973-6.249,6.973A5.1,5.1,0,0,1,6.012,34.83a4.241,4.241,0,0,1,2.8-4.054c.854.9,2.864-.08,2.864-1.874,0-1.66-2.135-3.732-5.271-3.732A9.721,9.721,0,0,0,0,27.6a17.791,17.791,0,0,1,7.194-9.43s-4.872-7.753,2-13.214a9.832,9.832,0,0,0-.327,9.272,12.15,12.15,0,0,1,4.9-11.8C20.19-2.3,28.193,1.263,28.626,1.7a13.908,13.908,0,0,0-8.869,3.5S32.448,1.191,38,11.894c0,0-2.523-2.986-10.526-3.2a13.57,13.57,0,0,1,8.58,7.354A16.683,16.683,0,0,1,36.7,29.369S34.49,12.958,16.44,15.066l-.381.127c.59-.058,1.192-.12,1.823-.12,14.628,0,17.656,14,14.459,19.709a9.871,9.871,0,0,0-.721-4.078C32.487,40.582,25,43.713,25,43.713a14.488,14.488,0,0,0-.682-14.466c1.154,2.331,2.643,11.19-2.667,16.073A11.067,11.067,0,0,1,14.042,48Zm-.355-29.743a4.77,4.77,0,0,0-3,1.558c5.155,1.1,4.731-1.615,4.731-1.615s-.238-.02-.592-.02A7.979,7.979,0,0,0,13.533,18.257Z" fill="#888"/>
  </g>
</svg>
