<svg id="Vector_Smart_Object" data-name="Vector Smart Object" xmlns="http://www.w3.org/2000/svg" xmlns:xlink="http://www.w3.org/1999/xlink" width="40" height="43" viewBox="0 0 40 43">
  <defs>
    <clipPath id="clip-path">
      <rect id="Rectangle_5" data-name="Rectangle 5" width="40" height="43" transform="translate(0 0)" fill="none"/>
    </clipPath>
  </defs>
  <g id="Vector_Smart_Object-2" data-name="Vector Smart Object">
    <g id="Vector_Smart_Object-3" data-name="Vector Smart Object" transform="translate(0 0)">
      <g id="Group_10" data-name="Group 10">
        <g id="Group_9" data-name="Group 9" clip-path="url(#clip-path)">
          <path id="Path_31" data-name="Path 31" d="M20,12.357a6.179,6.179,0,1,0-6.154-6.179A6.172,6.172,0,0,0,20,12.357" fill="#414042"/>
          <path id="Path_32" data-name="Path 32" d="M23.077,22.15V13.269a7.791,7.791,0,0,1-6.154,0V22.15a9.276,9.276,0,0,1,6.154,0" fill="#414042"/>
          <path id="Path_33" data-name="Path 33" d="M12.4,28.931l-.058.209a.774.774,0,0,0,.5.942,22.719,22.719,0,0,0,14.334,0,.776.776,0,0,0,.5-.942l-.06-.212a7.9,7.9,0,0,0-15.209,0" fill="#414042"/>
          <path id="Path_34" data-name="Path 34" d="M20.286,37.016a.764.764,0,0,1-.572,0L0,29.1v5.656a.773.773,0,0,0,.483.717L19.231,43V38.616a.769.769,0,1,1,1.538,0V43l18.746-7.529A.769.769,0,0,0,40,34.755V29.1Z" fill="#414042"/>
          <path id="Path_35" data-name="Path 35" d="M39.231,27.745l-14.615-5.87v.987A9.481,9.481,0,0,1,29.083,28.5l.06.212a2.32,2.32,0,0,1-1.486,2.831,24.254,24.254,0,0,1-15.309,0,2.32,2.32,0,0,1-1.492-2.827l.06-.212a9.489,9.489,0,0,1,4.469-5.646v-.989L.769,27.745,20,35.468ZM30,27.8h1.538a.772.772,0,0,1,0,1.545H30A.772.772,0,0,1,30,27.8" fill="#414042"/>
        </g>
      </g>
    </g>
    <path id="Color_Overlay" data-name="Color Overlay" d="M20.769,38.616a.769.769,0,1,0-1.538,0V43L.483,35.471A.772.772,0,0,1,0,34.754V29.1l19.714,7.918a.762.762,0,0,0,.572,0L40,29.1v5.657a.769.769,0,0,1-.484.716L20.769,43ZM.77,27.745l14.615-5.87v.988a9.49,9.49,0,0,0-4.469,5.646l-.059.212a2.319,2.319,0,0,0,1.492,2.827,24.242,24.242,0,0,0,15.309,0,2.319,2.319,0,0,0,1.486-2.83l-.059-.212a9.482,9.482,0,0,0-4.469-5.64v-.987l14.616,5.87L20,35.468Zm28.462.831a.771.771,0,0,0,.769.772h1.539a.772.772,0,0,0,0-1.544H30A.771.771,0,0,0,29.231,28.576Zm-16.4,1.506a.773.773,0,0,1-.5-.942l.059-.208a7.9,7.9,0,0,1,15.209,0l.059.212a.774.774,0,0,1-.5.942,22.717,22.717,0,0,1-14.333,0ZM20,21.625a9.347,9.347,0,0,0-3.077.525V13.269a7.8,7.8,0,0,0,6.154,0V22.15A9.343,9.343,0,0,0,20,21.625ZM13.847,6.179A6.154,6.154,0,1,1,20,12.357,6.172,6.172,0,0,1,13.847,6.179Z" fill="#888"/>
  </g>
</svg>
