<svg xmlns="http://www.w3.org/2000/svg" xmlns:xlink="http://www.w3.org/1999/xlink" width="25.999" height="46" viewBox="0 0 25.999 46">
  <defs>
    <clipPath id="clip-path">
      <rect id="Rectangle_7" data-name="Rectangle 7" width="25.999" height="46" fill="none"/>
    </clipPath>
  </defs>
  <g id="Vector_Smart_Object" data-name="Vector Smart Object" transform="translate(-15.867)">
    <g id="Vector_Smart_Object-2" data-name="Vector Smart Object" transform="translate(15.867)">
      <g id="Vector_Smart_Object-3" data-name="Vector Smart Object">
        <g id="Group_14" data-name="Group 14">
          <g id="Group_13" data-name="Group 13" clip-path="url(#clip-path)">
            <path id="Path_41" data-name="Path 41" d="M12.347,4.6a.813.813,0,0,0,1.306,0L16.1,1.314a.826.826,0,0,0,.077-.859A.818.818,0,0,0,15.444,0h-4.89a.817.817,0,0,0-.729.455.826.826,0,0,0,.077.859Z" fill="#414042"/>
            <path id="Path_42" data-name="Path 42" d="M5.79,3.843A13.183,13.183,0,0,0,2.142,7.519l8.632,5.024Z" fill="#414042"/>
            <path id="Path_43" data-name="Path 43" d="M12.185,7.393A.819.819,0,0,1,13,6.571a2.446,2.446,0,0,1-1.955-.986L8.676,2.4a12.814,12.814,0,0,0-1.47.628l4.98,8.692Z" fill="#414042"/>
            <path id="Path_44" data-name="Path 44" d="M13.816,7.393v4.329l4.978-8.692A12.765,12.765,0,0,0,17.327,2.4l-2.37,3.182A2.448,2.448,0,0,1,13,6.571a.819.819,0,0,1,.815.821" fill="#414042"/>
            <path id="Path_45" data-name="Path 45" d="M24.666,20.624A13.113,13.113,0,0,0,26,15.609H16.044Z" fill="#414042"/>
            <path id="Path_46" data-name="Path 46" d="M23.857,7.519a13.183,13.183,0,0,0-3.648-3.677l-4.983,8.7Z" fill="#414042"/>
            <path id="Path_47" data-name="Path 47" d="M26,13.966a13.094,13.094,0,0,0-1.335-5.021l-8.627,5.021Z" fill="#414042"/>
            <path id="Path_48" data-name="Path 48" d="M0,15.609a13.113,13.113,0,0,0,1.333,5.017l8.624-5.017Z" fill="#414042"/>
            <path id="Path_49" data-name="Path 49" d="M20.209,25.729a13.183,13.183,0,0,0,3.648-3.677l-8.632-5.024Z" fill="#414042"/>
            <path id="Path_50" data-name="Path 50" d="M13.816,17.85v9.257a.819.819,0,0,1-.815.821,12.864,12.864,0,0,0,5.8-1.387Z" fill="#414042"/>
            <path id="Path_51" data-name="Path 51" d="M1.333,8.947A13.092,13.092,0,0,0,0,13.966H9.962Z" fill="#414042"/>
            <path id="Path_52" data-name="Path 52" d="M7.205,26.542A12.857,12.857,0,0,0,13,27.929a.819.819,0,0,1-.815-.821V17.85Z" fill="#414042"/>
            <path id="Path_53" data-name="Path 53" d="M10.775,17.028,2.144,22.052a13.2,13.2,0,0,0,3.648,3.677Z" fill="#414042"/>
            <path id="Path_54" data-name="Path 54" d="M13.816,38.237V30.393a.815.815,0,1,0-1.63,0v7.845L5.124,44.564a.826.826,0,0,0-.068,1.16.815.815,0,0,0,1.151.069l5.979-5.357v4.743a.815.815,0,1,0,1.63,0V40.436l5.979,5.357a.811.811,0,0,0,1.151-.069.826.826,0,0,0-.068-1.16Z" fill="#414042"/>
          </g>
        </g>
      </g>
      <path id="Color_Overlay" data-name="Color Overlay" d="M19.795,45.793l-5.979-5.358v4.743a.815.815,0,1,1-1.631,0V40.435L6.206,45.793a.815.815,0,0,1-1.151-.069.825.825,0,0,1,.068-1.159l7.061-6.327V30.393a.815.815,0,1,1,1.631,0v7.844l7.061,6.327a.825.825,0,0,1,.068,1.159.811.811,0,0,1-1.151.069ZM13.816,27.107V17.85l4.98,8.692A12.857,12.857,0,0,1,13,27.929.819.819,0,0,0,13.816,27.107Zm-6.611-.565,4.979-8.692v9.257a.818.818,0,0,0,.814.822A12.852,12.852,0,0,1,7.205,26.542Zm8.02-9.514,8.632,5.024a13.18,13.18,0,0,1-3.649,3.677ZM2.144,22.052l8.632-5.024-4.984,8.7A13.2,13.2,0,0,1,2.144,22.052ZM0,15.609H9.957L1.334,20.626A13.107,13.107,0,0,1,0,15.609Zm16.044,0H26a13.113,13.113,0,0,1-1.333,5.016Zm-.007-1.643,8.627-5.021A13.1,13.1,0,0,1,26,13.966ZM0,13.966A13.079,13.079,0,0,1,1.334,8.947l8.628,5.019ZM20.209,3.843A13.189,13.189,0,0,1,23.857,7.52l-8.632,5.024ZM2.142,7.52A13.189,13.189,0,0,1,5.791,3.843l4.983,8.7Zm11.674-.127A.818.818,0,0,0,13,6.572a2.45,2.45,0,0,0,1.957-.987L17.327,2.4a12.677,12.677,0,0,1,1.467.627l-4.978,8.692ZM7.205,3.029A12.73,12.73,0,0,1,8.676,2.4l2.37,3.183A2.445,2.445,0,0,0,13,6.572a.818.818,0,0,0-.815.821v4.329ZM12.347,4.6,9.9,1.314A.825.825,0,0,1,9.825.455.816.816,0,0,1,10.553,0h4.891A.822.822,0,0,1,16.1,1.314L13.653,4.6a.813.813,0,0,1-1.306,0Z" fill="#888"/>
    </g>
  </g>
</svg>
