<svg id="Vector_Smart_Object" data-name="Vector Smart Object" xmlns="http://www.w3.org/2000/svg" xmlns:xlink="http://www.w3.org/1999/xlink" width="36" height="42" viewBox="0 0 36 42">
  <defs>
    <clipPath id="clip-path">
      <rect id="Rectangle_9" data-name="Rectangle 9" width="36" height="42" fill="none"/>
    </clipPath>
  </defs>
  <g id="Vector_Smart_Object-2" data-name="Vector Smart Object">
    <g id="Vector_Smart_Object-3" data-name="Vector Smart Object">
      <g id="Group_18" data-name="Group 18">
        <g id="Group_17" data-name="Group 17" clip-path="url(#clip-path)">
          <path id="Path_69" data-name="Path 69" d="M33,13.5H29.924a14.953,14.953,0,0,0-4.294-9.072c-.009-.01-.012-.024-.023-.035s-.024-.013-.034-.022a14.971,14.971,0,0,0-21.144,0c-.01.009-.024.012-.035.022s-.013.024-.022.035a14.971,14.971,0,0,0,0,21.144c.009.01.012.024.022.034s.024.014.035.023a15.079,15.079,0,0,0,3.992,2.83L5.829,34.5H2.25a.75.75,0,0,0,0,1.5H5.186L3.255,40.5H.75a.75.75,0,0,0,0,1.5h28.5a.75.75,0,0,0,0-1.5H26.745L24.4,35.031A17.266,17.266,0,0,0,36,18.75V16.5a3,3,0,0,0-3-3M10.5,15a4.455,4.455,0,0,1,.84-2.6l1.635,1.635a2.18,2.18,0,0,0,0,1.929L11.34,17.6A4.455,4.455,0,0,1,10.5,15m9,0a4.455,4.455,0,0,1-.84,2.6l-1.635-1.635a2.18,2.18,0,0,0,0-1.929L18.66,12.4A4.455,4.455,0,0,1,19.5,15m-3.536-2.025a2.18,2.18,0,0,0-1.929,0L12.4,11.34a4.442,4.442,0,0,1,5.2,0Zm-3.178,5.3-.215.5c-.058-.038-.114-.076-.171-.117Zm2.078-1.038c.046,0,.09.014.136.014s.09-.01.136-.014l.912,2.127a4.1,4.1,0,0,1-2.1,0Zm2.351,1.038.385.385c-.057.041-.112.08-.171.117Zm1.446,1.446,2.145,2.145a8.927,8.927,0,0,1-1.589,1.08l-1.2-2.792a5.848,5.848,0,0,0,.641-.433m1.061-1.061a5.874,5.874,0,0,0,0-7.32l2.145-2.145a8.961,8.961,0,0,1,0,11.61ZM18.66,10.28a5.874,5.874,0,0,0-7.32,0L9.195,8.134a8.961,8.961,0,0,1,11.61,0ZM10.28,11.34a5.874,5.874,0,0,0,0,7.32L8.134,20.805a8.961,8.961,0,0,1,0-11.61Zm1.061,8.381a5.848,5.848,0,0,0,.641.433l-1.2,2.792a8.927,8.927,0,0,1-1.589-1.08Zm2.019,1.023A5.938,5.938,0,0,0,15,21a5.938,5.938,0,0,0,1.641-.257l1.2,2.792a8.884,8.884,0,0,1-5.673,0ZM15,25.5a10.438,10.438,0,0,0,3.429-.587l1.182,2.759a13.253,13.253,0,0,1-9.222,0l1.182-2.759A10.438,10.438,0,0,0,15,25.5m4.807-1.176a10.5,10.5,0,0,0,2.058-1.4l2.12,2.121a13.466,13.466,0,0,1-3,2.032Zm5.24-.339-2.121-2.12a10.443,10.443,0,0,0,0-13.731l2.121-2.119a13.416,13.416,0,0,1,0,17.97M23.985,4.953l-2.12,2.121a10.443,10.443,0,0,0-13.731,0L6.015,4.953a13.416,13.416,0,0,1,17.97,0M4.953,6.015,7.074,8.134a10.443,10.443,0,0,0,0,13.731l-2.121,2.12a13.416,13.416,0,0,1,0-17.97M6.015,25.047l2.119-2.121a10.5,10.5,0,0,0,2.058,1.4L9.01,27.079a13.465,13.465,0,0,1-3-2.032m3.783,4a14.725,14.725,0,0,0,10.4,0L21.468,32a24.341,24.341,0,0,1-2.017,1.486A2.921,2.921,0,0,0,19.5,33a3.009,3.009,0,0,0-3-3,2.779,2.779,0,0,0-1.005.18,4.453,4.453,0,0,1,.744,4.32H14.583A2.967,2.967,0,0,0,15,33a3,3,0,0,0-6,0,2.967,2.967,0,0,0,.417,1.5H7.461ZM25.113,40.5H4.887L6.818,36H18.75a17.181,17.181,0,0,0,4.2-.538ZM33,18H30.75a.75.75,0,0,0-.7.486l-1.2,3.2a24.478,24.478,0,0,1-6.2,9.262l-1.07-2.49a15.079,15.079,0,0,0,3.992-2.83c.01-.009.024-.012.034-.023s.014-.024.023-.034A14.952,14.952,0,0,0,30,15h3a1.5,1.5,0,0,1,0,3" fill="#414042"/>
        </g>
      </g>
    </g>
    <path id="Color_Overlay" data-name="Color Overlay" d="M.75,42a.75.75,0,0,1,0-1.5H3.255L5.186,36H2.25a.75.75,0,0,1,0-1.5H5.829l2.59-6.04a15.1,15.1,0,0,1-3.992-2.83c-.011-.009-.024-.013-.034-.023s-.014-.024-.023-.035a14.969,14.969,0,0,1,0-21.144c.009-.011.012-.024.023-.034s.023-.014.034-.023a14.969,14.969,0,0,1,21.144,0c.011.009.024.012.035.023s.014.023.023.034A14.955,14.955,0,0,1,29.923,13.5H33a3,3,0,0,1,3,3v2.25A17.264,17.264,0,0,1,24.4,35.031L26.745,40.5h2.5a.75.75,0,0,1,0,1.5Zm4.137-1.5H25.113l-2.161-5.038a17.215,17.215,0,0,1-4.2.538H6.818ZM15,33a2.961,2.961,0,0,1-.418,1.5h1.656a4.454,4.454,0,0,0-.743-4.32,2.783,2.783,0,0,1,1-.18,3.009,3.009,0,0,1,3,3,2.92,2.92,0,0,1-.05.489A24.3,24.3,0,0,0,21.468,32L20.2,29.05a14.725,14.725,0,0,1-10.4,0L7.461,34.5H9.417A2.969,2.969,0,0,1,9,33a3,3,0,1,1,6,0Zm10.629-7.429c-.009.011-.013.024-.023.035s-.024.014-.035.023a15.083,15.083,0,0,1-3.992,2.83l1.07,2.489a24.482,24.482,0,0,0,6.2-9.262l1.2-3.2a.749.749,0,0,1,.7-.486H33a1.5,1.5,0,0,0,0-3H30A14.949,14.949,0,0,1,25.629,25.572Zm-15.241,2.1a13.254,13.254,0,0,0,9.222,0l-1.182-2.758a10.327,10.327,0,0,1-6.858,0Zm9.419-3.348,1.183,2.755a13.452,13.452,0,0,0,3-2.032l-2.119-2.121A10.488,10.488,0,0,1,19.807,24.324Zm-13.793.723a13.458,13.458,0,0,0,3,2.032l1.182-2.755a10.488,10.488,0,0,1-2.058-1.4Zm6.149-1.512a8.877,8.877,0,0,0,5.673,0l-1.2-2.792A5.926,5.926,0,0,1,15,21a5.933,5.933,0,0,1-1.642-.257Zm10.762-15.4a10.443,10.443,0,0,1,0,13.731l2.121,2.119a13.416,13.416,0,0,0,0-17.97ZM1.5,15a13.432,13.432,0,0,0,3.452,8.985l2.121-2.119a10.443,10.443,0,0,1,0-13.731L4.953,6.015A13.432,13.432,0,0,0,1.5,15Zm16.52,5.153,1.2,2.792a8.964,8.964,0,0,0,1.588-1.08L18.66,19.721A5.779,5.779,0,0,1,18.02,20.154ZM9.2,21.866a8.9,8.9,0,0,0,1.589,1.08l1.2-2.792a5.876,5.876,0,0,1-.641-.433ZM19.721,11.34a5.876,5.876,0,0,1,0,7.32l2.145,2.146a8.96,8.96,0,0,0,0-11.61ZM6,15a8.952,8.952,0,0,0,2.134,5.8L10.28,18.66a5.873,5.873,0,0,1,0-7.32L8.134,9.2A8.948,8.948,0,0,0,6,15Zm7.952,4.363a4.086,4.086,0,0,0,2.1,0l-.913-2.127c-.046,0-.09.014-.136.014s-.09-.011-.137-.014Zm3.477-.587c.058-.037.114-.076.171-.117l-.385-.385ZM12.4,18.66c.058.041.113.08.171.117l.215-.5Zm4.625-4.624a2.179,2.179,0,0,1,0,1.929L18.66,17.6a4.44,4.44,0,0,0,0-5.2ZM10.5,15a4.458,4.458,0,0,0,.84,2.6l1.635-1.635a2.179,2.179,0,0,1,0-1.929L11.34,12.4A4.458,4.458,0,0,0,10.5,15Zm5.464-2.025L17.6,11.34a4.444,4.444,0,0,0-5.2,0l1.635,1.635a2.179,2.179,0,0,1,1.929,0Zm2.7-2.7,2.146-2.146a8.963,8.963,0,0,0-11.61,0L11.34,10.28a5.873,5.873,0,0,1,7.32,0Zm3.206-3.206,2.119-2.121a13.418,13.418,0,0,0-17.97,0l2.12,2.121a10.443,10.443,0,0,1,13.731,0Z" fill="#888"/>
  </g>
</svg>
