<svg version="1.2" xmlns="http://www.w3.org/2000/svg" viewBox="0 0 2079 779" width="2079" height="779"><defs><linearGradient id="P" gradientUnits="userSpaceOnUse"/><linearGradient id="g1" x2="1" href="#P" gradientTransform="matrix(0,775,-2161.5,0,1527.17,1)"><stop offset=".04" stop-color="#0a0000" stop-opacity="1"/><stop offset="1" stop-opacity="0"/></linearGradient><radialGradient id="g2" cx="0" cy="0" r="1" href="#P" gradientTransform="matrix(0,652.574,-652.574,0,996.75,124.426)"><stop stop-color="#f37f15" stop-opacity="1"/><stop offset="1" stop-opacity="0"/></radialGradient></defs><style>.a{fill:url(#g1)}.b{fill:url(#g2)}</style><g style="opacity:.6"><path fill-rule="evenodd" class="a" d="m-86 1h836.9c16.9 0 32.8 8.6 42 22.8l15.9 24.4c9.3 14.2 25.1 22.8 42.1 22.8h173 21.2 173.1c16.9 0 32.7-8.6 42-22.8l15.9-24.4c9.2-14.2 25.1-22.8 42-22.8h757.4v775h-1030.4-21.2-1109.9z"/><path fill-rule="evenodd" class="b" d="m-85.1 0.9h838c17.3 0 33.5 8.7 42.9 23.3l16 24.4c9 13.9 24.5 22.3 41.1 22.3h367.3c16.5 0 32-8.4 41-22.3l16-24.4c9.4-14.6 25.6-23.3 42.9-23.3h758.5v777.2h-2163.7zm2161.5 775v-772.7h-756.3c-16.6 0-32 8.4-41.1 22.3l-15.9 24.4c-9.4 14.5-25.6 23.3-43 23.3h-367.2c-17.4 0-33.6-8.8-43-23.3l-15.9-24.4c-9.1-13.9-24.5-22.3-41.1-22.3h-835.8v772.7zm-1281.4-751.1l-1 0.7zm15.9 24.4l1-0.6zm451.3 0l1 0.6zm15.9-24.4l0.9 0.6z"/></g></svg>